<svg width="183" height="42" viewBox="0 0 183 42" fill="none" xmlns="http://www.w3.org/2000/svg">
<mask id="mask0_4840_2818" style="mask-type:luminance" maskUnits="userSpaceOnUse" x="0" y="0" width="48" height="42">
<path d="M48 -6.10352e-05H0V42.0001H48V-6.10352e-05Z" fill="white"/>
</mask>
<g mask="url(#mask0_4840_2818)">
<path d="M36.001 42.0001V39C36.001 38.6061 35.9234 38.2159 35.7727 37.8519C35.6219 37.4881 35.401 37.1574 35.1224 36.8786C34.8437 36.6 34.5129 36.3791 34.1491 36.2284C33.7851 36.0776 33.3949 36 33.001 36H21.0001C17.0219 36 13.2066 34.4197 10.3935 31.6066C7.58039 28.7935 6 24.9783 5.99993 21C5.99993 19.0302 6.38793 17.0796 7.14176 15.2597C7.8956 13.4398 9.00051 11.7862 10.3934 10.3933C11.7863 9.00045 13.4399 7.89558 15.2598 7.14177C17.0797 6.38795 19.0303 6 21.0001 6.00002H33.0001C33.394 6.00014 33.7844 5.92263 34.1484 5.77193C34.5125 5.6212 34.8434 5.40024 35.122 5.12165C35.4007 4.84305 35.6217 4.51229 35.7727 4.14825C35.9234 3.78421 36.001 3.39403 36.001 2.99998V-6.10352e-05H21.0008C18.2431 -6.10353e-05 15.5123 0.543123 12.9645 1.59848C10.4166 2.65383 8.10162 4.2007 6.15162 6.15072C4.20159 8.10077 2.65475 10.4158 1.59943 12.9637C0.544103 15.5115 0.000947016 18.2423 0.000976564 21C0.000976561 26.5695 2.21344 31.911 6.15166 35.8493C10.0899 39.7875 15.4313 42.0001 21.0008 42.0001H36.001Z" fill="url(#paint0_linear_4840_2818)"/>
<path d="M11.9999 21C11.9999 23.3869 12.9481 25.676 14.6359 27.3637C16.3237 29.0516 18.6128 29.9997 20.9996 29.9997H36.0009C37.5923 29.9997 39.1182 30.6319 40.2434 31.7571C41.3686 32.8823 42.0008 34.4084 42.0008 35.9998V41.9999H48.0009V36C48.0009 32.8175 46.7367 29.7652 44.4863 27.5147C42.2357 25.2643 39.1835 24.0001 36.0009 24.0001H21.0001C20.2044 24.0001 19.4413 23.6839 18.8787 23.1215C18.3161 22.5588 18 21.7957 18 21C18 20.2043 18.3161 19.4413 18.8787 18.8787C19.4413 18.316 20.2044 18 21.0001 18H36.0009C39.1835 18 42.2357 16.7357 44.4863 14.4853C46.7367 12.2348 48.0009 9.1826 48.0009 6.00002V-6.10352e-05H41.9999V6.00002C41.9999 7.59112 41.3679 9.11708 40.2429 10.2422C39.118 11.3674 37.5921 11.9996 36.0009 11.9999H21.0001C19.8181 11.9998 18.6478 12.2326 17.5558 12.6848C16.4638 13.1371 15.4716 13.8001 14.6359 14.6358C13.8001 15.4716 13.1372 16.4638 12.6849 17.5557C12.2326 18.6477 11.9999 19.8181 11.9999 21Z" fill="url(#paint1_linear_4840_2818)"/>
</g>
<path d="M72.7209 8.54545H78.7489L84.5533 19.5078H84.8018L90.6062 8.54545H96.6342L87.3498 25.0014V34H82.0053V25.0014L72.7209 8.54545ZM101.363 34H95.5964L104.384 8.54545H111.319L120.094 34H114.327L107.951 14.3622H107.752L101.363 34ZM101.003 23.9947H114.625V28.1957H101.003V23.9947ZM144.449 8.54545V34H139.8L128.726 17.979H128.539V34H123.158V8.54545H127.881L138.868 24.554H139.092V8.54545H144.449ZM171.354 17.457H165.91C165.811 16.7527 165.608 16.1271 165.301 15.5803C164.995 15.0251 164.601 14.5528 164.12 14.1634C163.64 13.7739 163.085 13.4756 162.455 13.2685C161.834 13.0613 161.158 12.9577 160.429 12.9577C159.112 12.9577 157.964 13.285 156.986 13.9396C156.008 14.5859 155.25 15.5305 154.712 16.7734C154.173 18.008 153.904 19.5078 153.904 21.2727C153.904 23.0874 154.173 24.612 154.712 25.8466C155.259 27.0812 156.021 28.0134 156.999 28.6431C157.976 29.2728 159.107 29.5877 160.392 29.5877C161.113 29.5877 161.78 29.4924 162.393 29.3018C163.014 29.1113 163.565 28.8337 164.046 28.4691C164.526 28.0962 164.924 27.6446 165.239 27.1143C165.562 26.584 165.786 25.9792 165.91 25.2997L171.354 25.3246C171.213 26.4929 170.861 27.6198 170.298 28.7053C169.743 29.7824 168.993 30.7478 168.048 31.6012C167.112 32.4464 165.993 33.1175 164.692 33.6147C163.4 34.1036 161.937 34.348 160.305 34.348C158.034 34.348 156.004 33.8343 154.215 32.8068C152.433 31.7794 151.024 30.292 149.989 28.3448C148.961 26.3976 148.448 24.0402 148.448 21.2727C148.448 18.4969 148.97 16.1354 150.014 14.1882C151.058 12.241 152.475 10.7578 154.264 9.73864C156.054 8.71117 158.068 8.19744 160.305 8.19744C161.78 8.19744 163.147 8.40459 164.406 8.81889C165.674 9.23319 166.797 9.83807 167.775 10.6335C168.752 11.4207 169.548 12.386 170.161 13.5295C170.782 14.6729 171.18 15.9821 171.354 17.457ZM180.595 8.54545V34H175.213V8.54545H180.595Z" fill="black"/>
<defs>
<linearGradient id="paint0_linear_4840_2818" x1="5.43698" y1="21" x2="51.6251" y2="21" gradientUnits="userSpaceOnUse">
<stop stop-color="#35BAB2"/>
<stop offset="1" stop-color="#3592BA"/>
</linearGradient>
<linearGradient id="paint1_linear_4840_2818" x1="5.41177" y1="20.9999" x2="51.637" y2="20.9999" gradientUnits="userSpaceOnUse">
<stop stop-color="#35BAB2"/>
<stop offset="1" stop-color="#3592BA"/>
</linearGradient>
</defs>
</svg>