<svg
    width="40"
    height="40"
    viewBox="0 0 40 40"
    fill="none"
    xmlns="http://www.w3.org/2000/svg"
>
    <path
    fill-rule="evenodd"
    clip-rule="evenodd"
    d="M21.1594 9.56524C21.1594 8.92491 20.6403 8.40582 20 8.40582C19.3597 8.40582 18.8406 8.92491 18.8406 9.56524V10.4348H18.1943C15.6145 10.4348 13.4793 12.4406 13.3183 15.0154L13.062 19.1121C12.9643 20.6741 12.44 22.1793 11.546 23.4639C10.7382 24.6245 11.4573 26.2275 12.8613 26.396L16.8116 26.87V28.116C16.8116 29.8769 18.2391 31.3044 20 31.3044C21.7609 31.3044 23.1884 29.8769 23.1884 28.116V26.87L27.1387 26.396C28.5427 26.2275 29.2617 24.6245 28.454 23.4639C27.56 22.1793 27.0356 20.6741 26.9379 19.1121L26.6817 15.0154C26.5207 12.4406 24.3855 10.4348 21.8057 10.4348H21.1594V9.56524ZM18.1943 12.1739C16.5328 12.1739 15.1577 13.4657 15.054 15.1239L14.7978 19.2207C14.6802 21.1003 14.0492 22.9116 12.9734 24.4573C12.915 24.5412 12.967 24.6571 13.0685 24.6693L17.402 25.1893C19.1278 25.3964 20.8722 25.3964 22.598 25.1893L26.9315 24.6693C27.0329 24.6571 27.0849 24.5412 27.0265 24.4573C25.9508 22.9116 25.3198 21.1003 25.2022 19.2207L24.946 15.1239C24.8422 13.4657 23.4671 12.1739 21.8057 12.1739H18.1943ZM20 29.5652C19.1996 29.5652 18.5507 28.9164 18.5507 28.116V27.2464H21.4493V28.116C21.4493 28.9164 20.8004 29.5652 20 29.5652Z"
    fill="#35BAB2"
    />
      <circle cx="20" cy="20" r="19" stroke="#35BAB2" strokeWidth="2" />
</svg>